HIERARCHY
ROOT hips
{
  OFFSET 0 9.313263304106702 1.2146308026317778
  CHANNELS 6 Xposition Yposition Zposition Yrotation Xrotation Zrotation
  JOINT spine
  {
    OFFSET -6.402521e-31 0.5173342420023708 0
    CHANNELS 3 Yrotation Xrotation Zrotation
    JOINT chest
    {
      OFFSET 0 1.130544299341115 0
      CHANNELS 3 Yrotation Xrotation Zrotation
      JOINT upperChest
      {
        OFFSET 0 1.0863555061129995 0
        CHANNELS 3 Yrotation Xrotation Zrotation
        JOINT neck
        {
          OFFSET 0 1.3773706506454462 0
          CHANNELS 3 Yrotation Xrotation Zrotation
          JOINT head
          {
            OFFSET 0 0.7374408940073979 0
            CHANNELS 3 Yrotation Xrotation Zrotation
            JOINT leftEye
            {
              OFFSET 0.25066580148932727 0.6408406698778757 0.15963719178883284
              CHANNELS 3 Yrotation Xrotation Zrotation
              End Site
              {
                OFFSET 0.25066580148932727 0.6408406698778757 0.15963719178883284
              }
            }
            JOINT rightEye
            {
              OFFSET -0.25066576739704244 0.6408406384191823 0.15963727561643756
              CHANNELS 3 Yrotation Xrotation Zrotation
              End Site
              {
                OFFSET -0.25066576739704244 0.6408406384191823 0.15963727561643756
              }
            }
          }
        }
        JOINT leftShoulder
        {
          OFFSET 0.3761817444281191 1.0539491987447769 0
          CHANNELS 3 Yrotation Xrotation Zrotation
          JOINT leftUpperArm
          {
            OFFSET 0.8702844380000002 0 0
            CHANNELS 3 Yrotation Xrotation Zrotation
            JOINT leftLowerArm
            {
              OFFSET 2.198527310000323 0 0
              CHANNELS 3 Yrotation Xrotation Zrotation
              JOINT leftHand
              {
                OFFSET 2.146852313968281 0 0
                CHANNELS 3 Yrotation Xrotation Zrotation
                JOINT leftIndexProximal
                {
                  OFFSET 0.6585177834681599 0.07380250427007962 0.18382213159631788
                  CHANNELS 3 Yrotation Xrotation Zrotation
                  JOINT leftIndexIntermediate
                  {
                    OFFSET 0.3323021288626682 -0.009606893929485771 -0.012820872253340998
                    CHANNELS 3 Yrotation Xrotation Zrotation
                    JOINT leftIndexDistal
                    {
                      OFFSET 0.2045908926985518 -0.0071133989147997845 -0.006828784783599051
                      CHANNELS 3 Yrotation Xrotation Zrotation
                      End Site
                      {
                        OFFSET 0.2045908926985518 -0.0071133989147997845 -0.006828784783599051
                      }
                    }
                  }
                }
                JOINT leftLittleProximal
                {
                  OFFSET 0.6110054258835662 0.07380246363125398 -0.29175655876064077
                  CHANNELS 3 Yrotation Xrotation Zrotation
                  JOINT leftLittleIntermediate
                  {
                    OFFSET 0.3144281999999998 -2.5124724523095665e-9 1.8658118799974588e-7
                    CHANNELS 3 Yrotation Xrotation Zrotation
                    JOINT leftLittleDistal
                    {
                      OFFSET 0.18116185580251631 0.002815456192251098 0.0034826415518049436
                      CHANNELS 3 Yrotation Xrotation Zrotation
                      End Site
                      {
                        OFFSET 0.18116185580251631 0.002815456192251098 0.0034826415518049436
                      }
                    }
                  }
                }
                JOINT leftMiddleProximal
                {
                  OFFSET 0.6637478005691111 0.07380246480054087 0.02046981859247815
                  CHANNELS 3 Yrotation Xrotation Zrotation
                  JOINT leftMiddleIntermediate
                  {
                    OFFSET 0.3705733999999994 -2.9611069152224445e-9 9.35054791928458e-8
                    CHANNELS 3 Yrotation Xrotation Zrotation
                    JOINT leftMiddleDistal
                    {
                      OFFSET 0.22861063500000056 -1.82673876025774e-9 -1.6740782024515788e-7
                      CHANNELS 3 Yrotation Xrotation Zrotation
                      End Site
                      {
                        OFFSET 0.22861063500000056 -1.82673876025774e-9 -1.6740782024515788e-7
                      }
                    }
                  }
                }
                JOINT leftRingProximal
                {
                  OFFSET 0.6561845547265777 0.07380246406440083 -0.13588087571513918
                  CHANNELS 3 Yrotation Xrotation Zrotation
                  JOINT leftRingIntermediate
                  {
                    OFFSET 0.3437531000000005 -2.746796123886952e-9 1.4935781944558357e-7
                    CHANNELS 3 Yrotation Xrotation Zrotation
                    JOINT leftRingDistal
                    {
                      OFFSET 0.1983118991198174 -0.002467117924596085 -0.004538141969590015
                      CHANNELS 3 Yrotation Xrotation Zrotation
                      End Site
                      {
                        OFFSET 0.1983118991198174 -0.002467117924596085 -0.004538141969590015
                      }
                    }
                  }
                }
                JOINT leftThumbProximal
                {
                  OFFSET 0.09767004258864787 -0.14930060425447422 -0.07008212897521154
                  CHANNELS 3 Yrotation Xrotation Zrotation
                  JOINT leftThumbIntermediate
                  {
                    OFFSET 0.36682123028154767 -0.015768465060082004 0.28693641268151077
                    CHANNELS 3 Yrotation Xrotation Zrotation
                    JOINT leftThumbDistal
                    {
                      OFFSET 0.21091084272403915 -0.016756648201192714 0.1933767059105508
                      CHANNELS 3 Yrotation Xrotation Zrotation
                      End Site
                      {
                        OFFSET 0.21091084272403915 -0.016756648201192714 0.1933767059105508
                      }
                    }
                  }
                }
              }
            }
          }
        }
        JOINT rightShoulder
        {
          OFFSET -0.37618174442811925 1.0539491987447769 0
          CHANNELS 3 Yrotation Xrotation Zrotation
          JOINT rightUpperArm
          {
            OFFSET -0.870284438 0 0
            CHANNELS 3 Yrotation Xrotation Zrotation
            JOINT rightLowerArm
            {
              OFFSET -2.1985273100003235 0 0
              CHANNELS 3 Yrotation Xrotation Zrotation
              JOINT rightHand
              {
                OFFSET -2.1468523139682802 0 0
                CHANNELS 3 Yrotation Xrotation Zrotation
                JOINT rightIndexProximal
                {
                  OFFSET -0.6585177834681599 0.07380250427007962 0.18382213159631788
                  CHANNELS 3 Yrotation Xrotation Zrotation
                  JOINT rightIndexIntermediate
                  {
                    OFFSET -0.3323021288626682 -0.009606893929485771 -0.012820872253340998
                    CHANNELS 3 Yrotation Xrotation Zrotation
                    JOINT rightIndexDistal
                    {
                      OFFSET -0.2045908926985518 -0.0071133989147997845 -0.006828784783599051
                      CHANNELS 3 Yrotation Xrotation Zrotation
                      End Site
                      {
                        OFFSET -0.2045908926985518 -0.0071133989147997845 -0.006828784783599051
                      }
                    }
                  }
                }
                JOINT rightLittleProximal
                {
                  OFFSET -0.6110054258835662 0.07380246363125398 -0.29175655876064077
                  CHANNELS 3 Yrotation Xrotation Zrotation
                  JOINT rightLittleIntermediate
                  {
                    OFFSET -0.3144281999999998 -2.5124724523095665e-9 1.8658118799974588e-7
                    CHANNELS 3 Yrotation Xrotation Zrotation
                    JOINT rightLittleDistal
                    {
                      OFFSET -0.18116185580251631 0.002815456192251098 0.0034826415518049436
                      CHANNELS 3 Yrotation Xrotation Zrotation
                      End Site
                      {
                        OFFSET -0.18116185580251631 0.002815456192251098 0.0034826415518049436
                      }
                    }
                  }
                }
                JOINT rightMiddleProximal
                {
                  OFFSET -0.6637478005691111 0.07380246480054087 0.02046981859247815
                  CHANNELS 3 Yrotation Xrotation Zrotation
                  JOINT rightMiddleIntermediate
                  {
                    OFFSET -0.3705733999999994 -2.9611069152224445e-9 9.35054791928458e-8
                    CHANNELS 3 Yrotation Xrotation Zrotation
                    JOINT rightMiddleDistal
                    {
                      OFFSET -0.22861063500000056 -1.82673876025774e-9 -1.6740782024515788e-7
                      CHANNELS 3 Yrotation Xrotation Zrotation
                      End Site
                      {
                        OFFSET -0.22861063500000056 -1.82673876025774e-9 -1.6740782024515788e-7
                      }
                    }
                  }
                }
                JOINT rightRingProximal
                {
                  OFFSET -0.6561845547265777 0.07380246406440083 -0.13588087571513918
                  CHANNELS 3 Yrotation Xrotation Zrotation
                  JOINT rightRingIntermediate
                  {
                    OFFSET -0.3437531000000005 -2.746796123886952e-9 1.4935781944558357e-7
                    CHANNELS 3 Yrotation Xrotation Zrotation
                    JOINT rightRingDistal
                    {
                      OFFSET -0.1983118991198174 -0.002467117924596085 -0.004538141969590015
                      CHANNELS 3 Yrotation Xrotation Zrotation
                      End Site
                      {
                        OFFSET -0.1983118991198174 -0.002467117924596085 -0.004538141969590015
                      }
                    }
                  }
                }
                JOINT rightThumbProximal
                {
                  OFFSET -0.09767004258864787 -0.14930060425447422 -0.07008212897521154
                  CHANNELS 3 Yrotation Xrotation Zrotation
                  JOINT rightThumbIntermediate
                  {
                    OFFSET -0.36682123028154767 -0.015768465060082004 0.28693641268151077
                    CHANNELS 3 Yrotation Xrotation Zrotation
                    JOINT rightThumbDistal
                    {
                      OFFSET -0.21091084272403915 -0.016756648201192714 0.1933767059105508
                      CHANNELS 3 Yrotation Xrotation Zrotation
                      End Site
                      {
                        OFFSET -0.21091084272403915 -0.016756648201192714 0.1933767059105508
                      }
                    }
                  }
                }
              }
            }
          }
        }
      }
    }
  }
  JOINT leftUpperLeg
  {
    OFFSET 0.7715603 -0.3993844658041501 0
    CHANNELS 3 Yrotation Xrotation Zrotation
    JOINT leftLowerLeg
    {
      OFFSET 0 -3.529830000249343 0
      CHANNELS 3 Yrotation Xrotation Zrotation
      JOINT leftFoot
      {
        OFFSET 0 -4.154939295409685 0.004208579085223096
        CHANNELS 3 Yrotation Xrotation Zrotation
        JOINT leftToes
        {
          OFFSET 0 -0.6353414391261847 1.10414981190622
          CHANNELS 3 Yrotation Xrotation Zrotation
          End Site
          {
            OFFSET 0 -0.6015820691747853 1.10414981190622
          }
        }
      }
    }
  }
  JOINT rightUpperLeg
  {
    OFFSET -0.7715603 -0.3993844658041501 0
    CHANNELS 3 Yrotation Xrotation Zrotation
    JOINT rightLowerLeg
    {
      OFFSET 0 -3.529830000249343 0
      CHANNELS 3 Yrotation Xrotation Zrotation
      JOINT rightFoot
      {
        OFFSET 0 -4.154939295409685 0.004208579085223096
        CHANNELS 3 Yrotation Xrotation Zrotation
        JOINT rightToes
        {
          OFFSET 0 -0.6353414391261847 1.10414981190622
          CHANNELS 3 Yrotation Xrotation Zrotation
          End Site
          {
            OFFSET 0 -0.6015820691747853 1.10414981190622
          }
        }
      }
    }
  }
}
MOTION
Frames: 4
Frame Time: 0.03333333333333333
-0.2609239925037731 8.630952835083006 -1.0797277542890538 -0.2891179246920286 -17.16859356102919 -3.523915565356611 -0.3883170853143247 0.39706349904343513 -1.5817390468633719 -2.329323005674699 1.6009879191296723 -4.4911713392508865 0 0 0 -0.1605456917786754 20.44977789763335 2.782670153957628 -0.49209815648595906 2.0420725369228547 1.405377313738868 0 0 0 0 0 0 -27.562623925416407 7.807742957522062 23.232706513837492 -60.86817305088863 -39.05958628690356 31.80820630799227 -22.402712752220992 -0.000026716118680887535 -0.000001003701228159041 3.630056640078153 -10.11587665287495 13.82716637005047 6.70672552315535 5.186668668225354 -75.44976428215264 6.839811094475245 8.077352363917493 -99.4952887468626 5.278389155892555 2.452366576149287 -49.762078644365914 7.818696306039431 9.3362991868295 -74.79937029321982 2.438282166718037 8.319845445609808 -100.01373603855569 5.206550655445217 2.6073243150450915 -49.75630330793507 6.706667554315552 5.186191589954537 -75.43390621350905 6.839465485595335 8.071177276235824 -99.51113487982971 5.287771894585295 2.453699684642248 -49.76203970211371 6.708209244246857 5.1922577549053 -75.44964249286187 6.83513068197531 8.071163479189877 -99.49514137260151 5.285525836532221 2.4533687574260132 -49.76204331558346 23.19632010497273 -19.23296258451388 4.804991474736845 25.63521095575882 29.409424687749173 5.675744247980717 10.096646572670478 11.556101444403927 1.7576272583388906 29.42474513045036 4.6898386709641935 -2.9708509591816474 33.17225815660253 -25.947821925785686 -36.49930044904399 16.524800889052965 -0.000009939985517144613 -0.000002435753454152599 60.00000166065576 -56.187546413203336 -39.03439549982278 -6.990767936890154 6.637879047371779 86.87206139789804 -6.9260541840146015 6.124937400438816 82.89115545625063 -4.6412736595923 1.7546257276176067 41.48972268171248 -6.986515534635573 6.559545900708055 86.87195425122823 -6.986247718245938 5.980005225487031 82.89306855873085 -4.712942140837595 1.6889150366319905 41.49195210370604 -6.992918797631387 6.676495626349009 86.87181784312672 -6.883711894210101 6.095743666129838 82.89154606729457 -4.668728316823003 1.7528936767873704 41.48977928343874 -6.988735784855523 6.6012504429941865 86.87219901965513 -6.964988721874453 6.142806732924074 82.8909161392986 -4.638847170466195 1.7684443946489483 41.48924151835357 -9.476413127551426 -12.709057430443085 3.5586075361404017 -51.43552997707893 37.628910350889036 -25.182879150571257 -18.51077351996466 18.31823688834214 -5.094536178680365 11.893112682301542 5.276640625810205 14.707795822483124 1.1240209580565368 30.05099353270319 0.6829913924301364 1.4736103601251744 -18.804185983021867 -8.559383318862396 6.930126001252595e-10 -0.0026525121360025427 0.0000017067482353894537 -7.841113831121153 7.930689854523114 -2.7602112670830254 -5.526148165751476 27.92554160999423 -2.8785967635268874 -1.4814030830016665 -17.960667193526124 6.008291847055312 -7.487854191048546e-7 -0.00005571477520204181 0.0000025613028223153146
-0.23192218758843158 8.64684365012429 -1.0931275286670503 0.045597477404794466 -16.793268926991505 -3.331697612562718 -0.3086261914027054 0.23014531039141728 -1.5029055049336613 -1.9705181435730963 0.9293254434258358 -4.129570621979422 0 0 0 -0.28067798400313415 19.822501040706836 1.8881595590967628 -1.5957308666665257 -3.8391422491463896 1.1178209849826357 0 0 0 0 0 0 -26.056325554503623 7.077364028836384 22.240387841420713 -60.707673492814216 -39.19718348509284 32.83333477724029 -28.618790831016884 -0.000030054015249776838 0.000014313141744630304 6.088250529636877 -9.028335597496536 24.804141413667608 6.70672552315535 5.186668668225354 -75.44976428215264 6.839811094475245 8.077352363917493 -99.4952887468626 5.278389155892555 2.452366576149287 -49.762080852413106 7.818696306039431 9.3362991868295 -74.79937029321982 2.438282166718037 8.319845445609808 -100.01373603855569 5.206550655445217 2.6073243150450915 -49.75630330793507 6.706667554315552 5.186191589954537 -75.43390621350905 6.839465485595335 8.071177276235824 -99.51113487982971 5.287771894585295 2.453699684642248 -49.76203970211371 6.708209244246857 5.1922577549053 -75.44964249286187 6.83513068197531 8.071163479189877 -99.49514137260151 5.285525836532221 2.4533687574260132 -49.76204331558346 23.19632010497273 -19.23296258451388 4.804991925268941 25.63521095575882 29.409424687749173 5.675744247980717 10.096646572670478 11.556101444403927 1.7576272583388906 27.970440869487003 4.2758378670867385 -1.1268989779850198 30.053552994208303 -31.097131502483776 -32.75560293779462 32.62409113230812 0.0000015745235699501581 0.000005166606608538107 40.36723766697943 -47.965697389263376 -25.705729958541575 -6.990767936890154 6.637879047371779 86.87206139789804 -6.9260541840146015 6.124937400438816 82.89115545625063 -4.6412736595923 1.7546257276176067 41.48972268171248 -6.986515534635573 6.559545900708055 86.87195425122823 -6.986247718245938 5.980005225487031 82.89306855873085 -4.712942140837595 1.6889150366319905 41.49195210370604 -6.992918797631387 6.676495626349009 86.87181784312672 -6.883711894210101 6.095743666129838 82.89154606729457 -4.668728316823003 1.7528936767873704 41.48977928343874 -6.988735784855523 6.6012504429941865 86.87219901965513 -6.964988721874453 6.142806732924074 82.8909161392986 -4.638847170466195 1.7684443946489483 41.48924151835357 -9.476413127551426 -12.709057430443085 3.5586075361404017 -51.43552997707893 37.628910350889036 -25.182879150571257 -18.51077351996466 18.31823688834214 -5.094536178680365 11.464149622769028 5.182990074029799 14.028437294834626 1.2404357302656444 29.457263494554624 0.7352458567691812 1.3965817768802358 -18.416068644937067 -8.265889453317838 6.930126001252595e-10 -0.0026525121360025427 0.0000017067482353894537 -7.8776121843194655 7.749166153459011 -3.0419710483556117 -6.293813652898043 27.201940389926996 -3.2069022155285234 -1.5028137556616359 -17.395879113762273 6.3555846931326 -7.487854191048546e-7 -0.00005571477520204181 0.0000025613028223153146
-0.201245979829268 8.661512028087268 -1.1149892119056866 0.3025606391497085 -15.975447032356831 -3.2670352666561806 -0.16522716571845836 0.10058652668741516 -1.5041328155595644 -1.3787936899385667 0.4062543047055416 -4.003886203688183 0 0 0 -0.47448119677200445 18.149879714984873 1.4970887560906663 -2.5319163768959676 -11.955980321232142 0.855927653496413 0 0 0 0 0 0 -24.17964036535476 6.062248325144047 20.346038835970504 -65.15335361088148 -44.37826517912975 35.33338491273674 -41.914073747147334 -0.000047540263173033166 0.000015886225159420585 10.136433700086545 -7.048158080974212 28.84435456487703 6.70672552315535 5.186668668225354 -75.44976428215264 6.839811094475245 8.077352363917493 -99.4952887468626 5.278389155892555 2.452366576149287 -49.762080852413106 7.818696306039431 9.3362991868295 -74.79937029321982 2.438282166718037 8.319845445609808 -100.01373603855569 5.206550655445217 2.6073243150450915 -49.75630330793507 6.706667554315552 5.186191589954537 -75.43390621350905 6.839465485595335 8.071177276235824 -99.51113487982971 5.287771894585295 2.453699684642248 -49.76203970211371 6.708209244246857 5.1922577549053 -75.44964249286187 6.83513068197531 8.071163479189877 -99.49514137260151 5.285525836532221 2.4533687574260132 -49.76204331558346 23.19632010497273 -19.23296258451388 4.804991925268941 25.63521095575882 29.409424687749173 5.675744247980717 10.096646572670478 11.556101444403927 1.7576272583388906 24.036482716520375 3.477570448812415 0.4877700716568264 22.219513661289845 -46.724486444648356 -14.064141359586804 49.90717583686408 -0.000002510843653071585 1.2978441666549022e-7 28.50787109566498 -39.72369913935992 -19.0885253428187 -6.990767936890154 6.637879047371779 86.87206139789804 -6.9260541840146015 6.124937400438816 82.89115545625063 -4.6412736595923 1.7546257276176067 41.48972268171248 -6.986515534635573 6.559545900708055 86.87195446575802 -6.986247718245938 5.980005225487031 82.89306855873085 -4.712942140837595 1.6889150366319905 41.49195210370604 -6.992918797631387 6.676495626349009 86.87181784312672 -6.883711894210101 6.095743666129838 82.89154606729457 -4.668728316823003 1.7528936767873704 41.48977928343874 -6.988735784855523 6.6012504429941865 86.87219901965513 -6.964988721874453 6.142806732924074 82.8909161392986 -4.638847170466195 1.7684443946489483 41.48924151835357 -9.476413127551426 -12.709057430443085 3.5586075361404017 -51.43552997707893 37.628910350889036 -25.182879150571257 -18.51077351996466 18.31823688834214 -5.094536178680365 11.014564239047719 4.430089336236611 13.373027980394212 1.4702259594750395 29.080103123667005 0.8499242206722856 1.3359317380820135 -18.035689905711266 -7.983072696099314 6.930126001252595e-10 -0.0026525121360025427 0.0000017067482353894537 -7.9582089745722 6.999744789664634 -3.141358725259217 -6.948883493304431 26.540909040491677 -3.4659647071877693 -1.55038053490913 -16.745739821996345 6.643242454965957 -7.487854191048546e-7 -0.00005571477520204181 0.0000025613028223153146
-0.17355126413432034 8.666294271295719 -1.1428841856605694 0.7558541097906374 -14.994965326199457 -3.230944975088468 -0.0012674339786156415 0.03252312808843344 -1.5815750420919963 -0.7496397561167872 0.13203681156847805 -4.072472237650307 0 0 0 -0.7266634250578096 15.802040733788383 1.7602326040151601 -3.3296908891502537 -21.54612070256373 0.5279033976868264 0 0 0 0 0 0 -22.4099094785505 5.13284767559246 17.979895995733127 -72.80998767667978 -51.676606070916506 38.63575681793133 -57.667783581189106 -0.00005732645273955973 0.000030459823493802392 13.957358601953997 -4.009475084598622 29.23161356254555 6.70672552315535 5.186668668225354 -75.44976428215264 6.839811094475245 8.077352363917493 -99.4952887468626 5.278389155892555 2.452366576149287 -49.762080852413106 7.818696306039431 9.3362991868295 -74.79937029321982 2.438282166718037 8.319845445609808 -100.01373603855569 5.206550655445217 2.6073243150450915 -49.75630330793507 6.706667554315552 5.186191589954537 -75.43390621350905 6.839465485595335 8.071177276235824 -99.51113487982971 5.287771894585295 2.453699684642248 -49.76203970211371 6.708209244246857 5.1922577549053 -75.44964249286187 6.83513068197531 8.071163479189877 -99.49514137260151 5.285525836532221 2.4533687574260132 -49.76204331558346 23.19632010497273 -19.23296258451388 4.804991925268941 25.63521095575882 29.409424687749173 5.675744247980717 10.096646572670478 11.556101444403927 1.7576272583388906 19.53694967187771 2.779178845616323 2.1394540321580595 15.859465906468136 -58.111690326519664 2.5114908761831645 66.42362823163195 -0.000005294935323492569 -0.000010097960869284631 20.438610919835806 -32.15915287138446 -15.365990023662164 -6.990767936890154 6.637879047371779 86.87206161246178 -6.9260541840146015 6.124937400438816 82.89115545625063 -4.6412736595923 1.7546257276176067 41.48972268171248 -6.986515534635573 6.559545900708055 86.87195446575802 -6.986247718245938 5.980005225487031 82.89306855873085 -4.712942140837595 1.6889150366319905 41.49195210370604 -6.992918797631387 6.676495626349009 86.87181784312672 -6.883711894210101 6.095743666129838 82.89154606729457 -4.668728316823003 1.7528936767873704 41.48977928343874 -6.988735784855523 6.6012504429941865 86.87219901965513 -6.964988721874453 6.142806732924074 82.8909161392986 -4.638847170466195 1.7684443946489483 41.48924151835357 -9.476413127551426 -12.709057430443085 3.5586075361404017 -51.43552997707893 37.628910350889036 -25.182879150571257 -18.51077351996466 18.31823688834214 -5.094536178680365 10.647900301373252 3.102183345882017 12.813991322323988 1.2466299821058249 29.25812961308519 0.7329599133329462 1.289121133427973 -17.854742343135488 -7.612683633425093 6.930126001252595e-10 -0.0026525121360025427 0.0000017067482353894537 -7.9874041727271905 5.811042309245602 -3.130535941533431 -7.847115122678431 26.404497405853338 -3.8945380533788825 -1.6499512967752512 -16.330011416664174 6.988051572487249 -7.487854191048546e-7 -0.00005571477520204181 0.0000025613028223153146
